<svg xmlns="http://www.w3.org/2000/svg" viewBox="0 0 16 16" height="16" width="16"
     fill="none" stroke="currentColor" stroke-width="1.05" stroke-linejoin="round" stroke-linecap="round">
<!-- A sauropod, traced as one continuous outline: snout, head, neck, back, tail,
     then back along the belly over four stubby legs.
     Outline rather than solid, because the toolbar's other icons are outlines
     and a filled silhouette reads far heavier than its neighbours.

     Proportions matter more than detail at this size. The body is deep — over
     four units between back and belly — and the neck and tail are thick where
     they leave it, tapering only towards the ends. Drawn thin, the same animal
     reads as a bird: a long neck on two spindly legs is a chicken, which is
     technically a dinosaur and not the one anyone pictures. -->
<path d="M1.5 3.5
         Q1.8 1.9 3.3 2.1
         Q4.7 2.4 5.2 5.2
         Q5.6 6.5 7.2 6.4
         Q9.4 6.2 10.6 7.3
         Q13.2 7.4 15.4 9.5
         Q13.8 10.4 11.4 10.6
         L11.4 12.9 L10.5 12.9 L10.4 10.8
         L9.6 10.9 L9.5 12.7 L8.6 12.7 L8.5 10.9
         L7.2 10.9 L7.1 12.9 L6.2 12.9 L6.1 10.8
         L5.4 10.6 L5.3 12.7 L4.5 12.7 L4.5 10.2
         Q4.6 9.6 4.6 9.1
         Q4.1 6.5 3.4 4.4
         Q3.0 3.5 1.5 3.5
         Z"/>
</svg>
